<svg xmlns="http://www.w3.org/2000/svg" viewBox="0 0 512 512">
  <defs>
    <linearGradient id="g" x1="0" y1="0" x2="1" y2="1">
      <stop offset="0" stop-color="#10b981"/>
      <stop offset="1" stop-color="#34d399"/>
    </linearGradient>
  </defs>
  <rect x="48" y="48" width="416" height="416" rx="96" fill="#050505"/>
  <rect x="80" y="80" width="352" height="352" rx="76" fill="url(#g)" opacity="0.12"/>
  <rect x="120" y="120" width="272" height="120" rx="28" fill="#0a0a0a" stroke="#10b981" stroke-opacity="0.35" stroke-width="8"/>
  <circle cx="168" cy="180" r="14" fill="#10b981"/>
  <rect x="200" y="166" width="160" height="28" rx="14" fill="#10b981" opacity="0.45"/>
  <g fill="#0a0a0a" stroke="#10b981" stroke-opacity="0.35" stroke-width="8">
    <rect x="120" y="270" width="78" height="78" rx="20"/>
    <rect x="217" y="270" width="78" height="78" rx="20"/>
    <rect x="314" y="270" width="78" height="78" rx="20"/>
    <rect x="120" y="358" width="78" height="78" rx="20"/>
    <rect x="217" y="358" width="78" height="78" rx="20"/>
    <rect x="314" y="358" width="78" height="78" rx="20"/>
  </g>
  <path d="M144 308h30M159 293v30" stroke="#10b981" stroke-width="10" stroke-linecap="round"/>
  <path d="M241 308h30" stroke="#10b981" stroke-width="10" stroke-linecap="round"/>
  <path d="M338 300h30M338 320h30" stroke="#10b981" stroke-width="10" stroke-linecap="round"/>
</svg>








